<?xml version="1.0" encoding="utf-8"?>
<!-- Generator: Adobe Illustrator 16.0.0, SVG Export Plug-In . SVG Version: 6.00 Build 0)  -->
<!DOCTYPE svg PUBLIC "-//W3C//DTD SVG 1.1//EN" "http://www.w3.org/Graphics/SVG/1.1/DTD/svg11.dtd">
<svg version="1.1" xmlns="http://www.w3.org/2000/svg" xmlns:xlink="http://www.w3.org/1999/xlink" x="0px" y="0px" width="200px"
	 height="200px" viewBox="0 0 200 200" enable-background="new 0 0 200 200" xml:space="preserve">
<g id="Banner">
</g>
<g id="Thumbnail__x28_Color_x29_">
	<g>
		<g>
			<path fill="#ECF0F1" d="M167.22,141.13c0.05,0.72-0.29,1.4-0.899,1.78L92.53,189.52c-0.32,0.2-0.681,0.301-1.04,0.301
				c-0.44,0-0.87-0.141-1.221-0.431c-0.649-0.52-0.89-1.39-0.609-2.18L154.4,9.2c0.279-0.78,1.01-1.28,1.819-1.28
				c0.09,0,0.181,0,0.271,0.02c0.91,0.12,1.6,0.87,1.67,1.79L167.22,141.13z"/>
		</g>
		<g>
			<path fill="#ECF0F1" d="M81.03,188.51c-0.261,0.74-0.94,1.26-1.73,1.311l-39.63,2.26h-0.11c-0.5,0-0.979-0.19-1.34-0.53
				c-0.38-0.359-0.6-0.87-0.6-1.41V153.24c0-0.76,0.439-1.45,1.14-1.76c0.25-0.12,0.53-0.181,0.8-0.181c0.46,0,0.91,0.17,1.28,0.48
				l39.63,34.63C81.06,186.93,81.28,187.76,81.03,188.51z"/>
		</g>
		<g>
			<path fill="#ECF0F1" d="M130.26,10.36L86.24,174.14c-0.19,0.721-0.78,1.261-1.51,1.4c-0.12,0.03-0.24,0.04-0.36,0.04
				c-0.61,0-1.19-0.29-1.561-0.78l-45.96-61.83c-0.55-0.729-0.51-1.75,0.101-2.439L126.93,8.57c0.38-0.42,0.91-0.65,1.46-0.65
				c0.311,0,0.63,0.07,0.91,0.23C130.1,8.58,130.5,9.49,130.26,10.36z"/>
		</g>
	</g>
</g>
<g id="Thumbnail__x28_White_x29_">
</g>
</svg>
